# xmcd CD database file
#
# Track frame offsets:
#	150
#	12130
#	25435
#	37733
#	50600
#	65608
#	89875
#	104948
#	117525
#	131068
#	146178
#	160553
#	174343
#	191108
#
# Disc length: 2724 seconds
#
# Revision: 0
# Processed by: cddbd v1.4PL0 Copyright (c) Steve Scherf et al.
# Submitted via: CDex 1.50
#
DISCID=d00aa20e
DTITLE=Ramsey Lewis - The Silver Collection
DYEAR=1900
DGENRE=Blues
TTITLE0=High heel sneakers
TTITLE1=Hang on Sloopy
TTITLE2=Dancing in the Street
TTITLE3=Hard Days Night
TTITLE4=Something you've got
TTITLE5=The 'in" crowd
TTITLE6=Wade in the water
TTITLE7=Soul man
TTITLE8=Since you've been gone
TTITLE9=One, two, three
TTITLE10=Uptight
TTITLE11=Respect
TTITLE12=Goin' out of my head
TTITLE13=I was made to love her
EXTD=
EXTT0=
EXTT1=
EXTT2=
EXTT3=
EXTT4=
EXTT5=
EXTT6=
EXTT7=
EXTT8=
EXTT9=
EXTT10=
EXTT11=
EXTT12=
EXTT13=
PLAYORDER=
